<?xml version="1.0" encoding="UTF-8" standalone="no"?>
<!-- Created with Inkscape (http://www.inkscape.org/) -->

<svg
   xmlns:dc="http://purl.org/dc/elements/1.1/"
   xmlns:cc="http://creativecommons.org/ns#"
   xmlns:rdf="http://www.w3.org/1999/02/22-rdf-syntax-ns#"
   xmlns:svg="http://www.w3.org/2000/svg"
   xmlns="http://www.w3.org/2000/svg"
   xmlns:sodipodi="http://sodipodi.sourceforge.net/DTD/sodipodi-0.dtd"
   xmlns:inkscape="http://www.inkscape.org/namespaces/inkscape"
   width="98.781326mm"
   height="98.896866mm"
   viewBox="0 0 350.01257 350.42196"
   id="svg2"
   version="1.1"
   inkscape:version="0.91 r13725"
   sodipodi:docname="2.svg">
  <defs
     id="defs4" />
  <sodipodi:namedview
     id="base"
     pagecolor="#ffffff"
     bordercolor="#666666"
     borderopacity="1.0"
     inkscape:pageopacity="0.0"
     inkscape:pageshadow="2"
     inkscape:zoom="1.1039267"
     inkscape:cx="139.96266"
     inkscape:cy="175.52102"
     inkscape:document-units="px"
     inkscape:current-layer="layer2"
     showgrid="false"
     inkscape:window-width="1366"
     inkscape:window-height="692"
     inkscape:window-x="0"
     inkscape:window-y="24"
     inkscape:window-maximized="1"
     showguides="false"
     fit-margin-top="0"
     fit-margin-left="0"
     fit-margin-right="0"
     fit-margin-bottom="0">
    <inkscape:grid
       type="xygrid"
       id="grid4192"
       originx="-157.40115"
       originy="-398.75739" />
  </sodipodi:namedview>
  <metadata
     id="metadata7">
    <rdf:RDF>
      <cc:Work
         rdf:about="">
        <dc:format>image/svg+xml</dc:format>
        <dc:type
           rdf:resource="http://purl.org/dc/dcmitype/StillImage" />
        <dc:title></dc:title>
      </cc:Work>
    </rdf:RDF>
  </metadata>
  <g
     inkscape:groupmode="layer"
     id="layer2"
     inkscape:label="Layer 2"
     style="display:inline"
     transform="translate(-157.40115,-303.18284)">
    <path
       style="fill:#a9a9a9;fill-rule:evenodd;stroke:#a9a9a9;stroke-width:35;stroke-linecap:round;stroke-linejoin:round;stroke-miterlimit:4;stroke-dasharray:none;stroke-opacity:1"
       d="M 175.07779,635.92794 489.73709,320.85971"
       id="path4184"
       inkscape:connector-curvature="0" />
    <path
       style="fill:#a9a9a9;stroke-width:35;stroke-linecap:round;stroke-linejoin:round;stroke-miterlimit:4;stroke-dasharray:none"
       d="m 171.38227,652.42521 c -3.92986,-0.89433 -9.2317,-4.83311 -11.06094,-8.21727 -2.86847,-5.30678 -2.90428,-10.09688 -0.1146,-15.38633 1.97439,-3.74413 37.65204,-39.97514 160.19536,-162.68 86.7104,-86.8247 159.325,-158.8313 161.36576,-160.01465 6.32965,-3.67031 15.4837,-2.41065 20.37553,2.80382 4.23458,4.51387 5.75067,12.46271 3.47281,18.20769 -1.35062,3.40634 -317.93589,321.17911 -322.3629,323.57204 -3.38089,1.82746 -8.27103,2.53384 -11.87062,1.71469 z"
       id="path4186"
       inkscape:connector-curvature="0" />
    <path
       inkscape:connector-curvature="0"
       id="path4188"
       d="m 506.43883,639.41899 c -0.89434,3.92986 -4.83312,9.2317 -8.21727,11.06094 -5.30678,2.86847 -10.09688,2.90428 -15.38634,0.1146 -3.74412,-1.97439 -39.97513,-37.65204 -162.67999,-160.19536 -86.8247,-86.7104 -158.8313,-159.325 -160.01466,-161.36576 -3.67031,-6.32965 -2.41064,-15.4837 2.80383,-20.37553 4.51387,-4.23458 12.46271,-5.75067 18.20768,-3.47281 3.40635,1.35062 321.17911,317.93589 323.57205,322.3629 1.82746,3.38089 2.53384,8.27103 1.71469,11.87062 z"
       style="fill:#a9a9a9;stroke-width:35;stroke-linecap:round;stroke-linejoin:round;stroke-miterlimit:4;stroke-dasharray:none" />
  </g>
</svg>
