<?xml version="1.0" encoding="UTF-8" standalone="no"?>
<!-- Uploaded to: SVG Repo, www.svgrepo.com, Generator: SVG Repo Mixer Tools -->

<svg
   fill="#000000"
   height="800px"
   width="800px"
   version="1.1"
   id="Layer_1"
   viewBox="0 0 512 512"
   xml:space="preserve"
   sodipodi:docname="podium.svg"
   inkscape:version="1.1.2 (0a00cf5339, 2022-02-04)"
   xmlns:inkscape="http://www.inkscape.org/namespaces/inkscape"
   xmlns:sodipodi="http://sodipodi.sourceforge.net/DTD/sodipodi-0.dtd"
   xmlns="http://www.w3.org/2000/svg"
   xmlns:svg="http://www.w3.org/2000/svg"><defs
   id="defs19" /><sodipodi:namedview
   id="namedview17"
   pagecolor="#ffffff"
   bordercolor="#666666"
   borderopacity="1.0"
   inkscape:pageshadow="2"
   inkscape:pageopacity="0.0"
   inkscape:pagecheckerboard="0"
   showgrid="false"
   inkscape:zoom="0.5275"
   inkscape:cx="524.17062"
   inkscape:cy="402.8436"
   inkscape:window-width="1850"
   inkscape:window-height="1016"
   inkscape:window-x="70"
   inkscape:window-y="27"
   inkscape:window-maximized="1"
   inkscape:current-layer="Layer_1" />
<g
   id="g14"
   transform="matrix(0.99281763,0,0,0.81562147,2.884486,41.066037)">
	<g
   id="g12">
		<g
   id="g10">
			<path
   d="m 511.915,266.261 c -0.021,-0.576 -0.235,-1.131 -0.341,-1.707 -0.171,-0.832 -0.299,-1.664 -0.661,-2.411 -0.043,-0.085 -0.021,-0.192 -0.064,-0.277 L 489.515,219.2 c -1.813,-3.584 -5.504,-5.867 -9.536,-5.867 H 362.667 v -96 c 0,-0.171 -0.085,-0.299 -0.085,-0.448 -0.021,-0.427 -0.192,-0.832 -0.256,-1.259 -0.171,-1.003 -0.341,-1.963 -0.768,-2.859 -0.021,-0.064 -0.021,-0.128 -0.043,-0.192 L 340.182,69.908 c -1.835,-3.627 -5.525,-5.909 -9.557,-5.909 H 181.291 c -4.032,0 -7.723,2.283 -9.536,5.888 l -21.333,42.667 c -0.064,0.128 -0.043,0.277 -0.107,0.405 -0.213,0.469 -0.256,1.003 -0.405,1.493 -0.256,0.875 -0.512,1.749 -0.533,2.645 0,0.085 -0.043,0.149 -0.043,0.235 V 192 H 32 c -4.032,0 -7.723,2.283 -9.536,5.888 L 1.131,240.555 c -0.043,0.107 -0.043,0.213 -0.085,0.32 -0.299,0.661 -0.405,1.387 -0.576,2.112 -0.149,0.661 -0.384,1.301 -0.405,1.984 0,0.128 -0.064,0.235 -0.064,0.363 v 192 C 0,443.221 4.779,448 10.667,448 h 490.667 c 5.888,0 10.667,-4.779 10.667,-10.667 V 266.667 c -10e-4,-0.15 -0.086,-0.278 -0.086,-0.406 z M 362.667,234.667 h 110.72 L 484.053,256 H 362.667 Z M 187.904,85.333 h 136.149 l 10.667,21.333 H 177.237 Z m -149.312,128 h 110.741 v 21.333 H 27.925 Z M 490.667,426.667 H 21.333 V 256 H 160 c 5.888,0 10.667,-4.779 10.667,-10.667 V 128 h 170.667 v 95.893 c 0,0.043 -0.021,0.064 -0.021,0.107 0,0.043 0.021,0.064 0.021,0.085 v 42.581 c 0,5.888 4.779,10.667 10.667,10.667 h 138.667 v 149.334 z"
   id="path2" />
			<path
   d="m 270.763,171.456 c -3.989,-1.664 -8.576,-0.768 -11.627,2.304 l -21.333,21.333 c -4.16,4.16 -4.16,10.923 0,15.083 4.16,4.16 10.923,4.16 15.083,0 l 3.115,-3.115 V 288 c 0,5.888 4.779,10.667 10.667,10.667 5.888,0 10.667,-4.779 10.688,-10.667 V 181.333 c -10e-4,-4.33 -2.604,-8.213 -6.593,-9.877 z"
   id="path4" />
			<path
   d="M 426.667,384 C 420.779,384 416,379.2 416,373.333 c 0,-5.888 -4.779,-10.667 -10.667,-10.667 -5.888,0 -10.667,4.779 -10.667,10.667 0,17.643 14.357,32 32,32 17.643,0 32,-14.357 32,-32 0,-8.192 -3.093,-15.659 -8.171,-21.333 5.077,-5.675 8.171,-13.141 8.171,-21.333 0,-17.643 -14.357,-32 -32,-32 -17.643,0 -32,14.357 -32,32 0,5.888 4.779,10.667 10.667,10.667 5.888,0 10.667,-4.779 10.667,-10.667 0,-5.867 4.779,-10.667 10.667,-10.667 5.888,0 10.667,4.8 10.667,10.667 0,5.867 -4.779,10.667 -10.667,10.667 -5.888,0 -10.667,4.778 -10.667,10.666 0,5.888 4.779,10.667 10.667,10.667 5.888,0 10.667,4.8 10.667,10.667 -10e-4,5.845 -4.779,10.666 -10.667,10.666 z"
   id="path6" />
			<path
   d="m 117.333,309.291 c 0,-17.643 -14.357,-32 -32,-32 -17.643,0 -32,14.357 -32,32 0,5.888 4.779,10.667 10.667,10.667 5.888,0 10.667,-4.779 10.667,-10.667 0,-5.867 4.779,-10.667 10.667,-10.667 5.888,0 10.666,4.8 10.666,10.667 0,10.901 -4.267,21.163 -11.968,28.885 L 56.448,365.76 c -3.051,3.051 -3.968,7.637 -2.304,11.627 1.643,4.01 5.547,6.613 9.856,6.613 h 42.667 c 5.888,0 10.667,-4.8 10.667,-10.688 0,-5.888 -4.779,-10.667 -10.667,-10.667 H 89.749 l 9.365,-9.365 c 11.755,-11.776 18.219,-27.392 18.219,-43.989 z"
   id="path8" />
		</g>
	</g>
</g>
</svg>
